<svg version="1.1" xmlns="http://www.w3.org/2000/svg" viewBox="0 0 250 250"><desc>Created with Snap</desc><defs></defs><g transform="matrix(0.0369,0,0,0.0369,10.6529,114.9566)"><g transform="matrix(26.6576,0,0,26.6576,3820.3639,-1074.0538)"><g><path d="M74.265,60.41c0.964,2.929,1.401,5.966,1.261,9.015c2.584-0.989,5.013-2.49,7.095-4.572c0.244-0.244,0.41-0.527,0.637-0.78   c0.018-0.341,0.105-0.659,0.105-1.004c0-2.924-0.646-5.691-1.764-8.203C79.522,57.139,77.045,59.022,74.265,60.41z" fill="#f4b41a" style=""></path><path d="M54.863,81.605c2.509,1.112,5.276,1.759,8.2,1.759c0.349,0,0.664-0.085,1.004-0.103c0.253-0.227,0.541-0.393,0.781-0.637   c2.08-2.085,3.585-4.516,4.572-7.104c-3.049,0.14-6.086-0.292-9.01-1.257C59.022,77.049,57.137,79.528,54.863,81.605z" fill="#f4b41a" style=""></path><path d="M40.588,74.265c-2.925,0.965-5.965,1.396-9.013,1.257c0.988,2.588,2.49,5.023,4.573,7.104   c0.242,0.244,0.528,0.41,0.779,0.637c0.339,0.018,0.661,0.103,1.003,0.103c2.926,0,5.691-0.646,8.202-1.759   C43.861,79.528,41.976,77.049,40.588,74.265z" fill="#f4b41a" style=""></path><path d="M26.731,60.41c-2.781-1.388-5.26-3.271-7.337-5.545c-1.112,2.512-1.758,5.279-1.758,8.203c0,0.345,0.085,0.663,0.1,1.004   c0.229,0.253,0.395,0.536,0.639,0.78c2.082,2.082,4.515,3.583,7.098,4.572C25.333,66.376,25.767,63.339,26.731,60.41z" fill="#f4b41a" style=""></path><path d="M26.731,40.592c-0.964-2.929-1.398-5.966-1.259-9.016c-2.583,0.989-5.014,2.491-7.098,4.572   c-0.244,0.245-0.41,0.528-0.639,0.781c-0.015,0.341-0.1,0.659-0.1,1.004c0,2.924,0.646,5.69,1.76,8.205   C21.471,43.863,23.95,41.979,26.731,40.592z" fill="#f4b41a" style=""></path><path d="M46.132,19.397c-2.511-1.114-5.275-1.76-8.202-1.76c-0.342,0-0.664,0.084-1.003,0.102   c-0.251,0.228-0.537,0.393-0.779,0.638c-2.083,2.08-3.585,4.515-4.573,7.103c3.048-0.14,6.088,0.293,9.013,1.257   C41.976,23.952,43.861,21.475,46.132,19.397z" fill="#f4b41a" style=""></path><path d="M60.41,26.736c2.924-0.964,5.961-1.396,9.01-1.257c-0.99-2.588-2.492-5.017-4.572-7.103   c-0.24-0.245-0.528-0.41-0.781-0.638c-0.34-0.018-0.659-0.102-1.004-0.102c-2.924,0-5.691,0.646-8.2,1.76   C57.137,21.475,59.022,23.952,60.41,26.736z" fill="#f4b41a" style=""></path><path d="M82.621,36.148c-2.082-2.081-4.511-3.583-7.095-4.572c0.14,3.05-0.297,6.087-1.261,9.016   c2.78,1.388,5.257,3.271,7.334,5.547c1.117-2.515,1.764-5.281,1.764-8.205c0-0.345-0.088-0.663-0.105-1.004   C83.031,36.677,82.865,36.394,82.621,36.148z" fill="#f4b41a" style=""></path><path d="M58.228,63.068c0-0.166-0.048-0.319-0.052-0.484c-1.061-0.21-2.09-0.498-3.099-0.834c-0.462,0.921-0.89,1.851-1.469,2.719   c0.113,0.122,0.19,0.267,0.309,0.384c1.143,1.14,2.404,2.069,3.718,2.881C57.993,66.228,58.228,64.683,58.228,63.068z" fill="#f4b41a" style=""></path><path d="M43.362,67.733c1.313-0.812,2.574-1.741,3.715-2.881c0.12-0.117,0.199-0.262,0.312-0.384   c-0.581-0.868-1.008-1.798-1.471-2.719c-1.008,0.336-2.038,0.624-3.1,0.834c-0.002,0.165-0.048,0.318-0.048,0.484   C42.771,64.683,43.006,66.228,43.362,67.733z" fill="#f4b41a" style=""></path><path d="M36.148,53.922c-1.139,1.14-2.068,2.4-2.88,3.717c1.503,0.355,3.051,0.59,4.663,0.59c0.166,0,0.318-0.044,0.484-0.048   c0.209-1.06,0.495-2.094,0.833-3.102c-0.918-0.463-1.848-0.886-2.716-1.471C36.411,53.726,36.269,53.805,36.148,53.922z" fill="#f4b41a" style=""></path><path d="M38.415,42.821c-0.166-0.006-0.319-0.05-0.484-0.05c-1.612,0-3.159,0.236-4.663,0.591c0.812,1.318,1.739,2.578,2.88,3.717   c0.12,0.118,0.262,0.196,0.384,0.314c0.868-0.583,1.797-1.008,2.716-1.471C38.91,44.916,38.625,43.881,38.415,42.821z" fill="#f4b41a" style=""></path><path d="M42.771,37.934c0,0.166,0.046,0.318,0.048,0.484c1.062,0.21,2.092,0.498,3.1,0.834c0.462-0.921,0.89-1.851,1.471-2.719   c-0.113-0.123-0.192-0.267-0.312-0.385c-1.141-1.139-2.402-2.066-3.715-2.879C43.006,34.774,42.771,36.319,42.771,37.934z" fill="#f4b41a" style=""></path><path d="M57.635,33.27c-1.314,0.812-2.575,1.74-3.718,2.879c-0.118,0.118-0.195,0.262-0.309,0.385   c0.579,0.868,1.007,1.798,1.469,2.719c1.008-0.336,2.038-0.624,3.099-0.834c0.004-0.166,0.052-0.318,0.052-0.484   C58.228,36.319,57.993,34.774,57.635,33.27z" fill="#f4b41a" style=""></path><path d="M63.063,42.771c-0.166,0-0.314,0.044-0.48,0.05c-0.209,1.06-0.498,2.095-0.838,3.102c0.921,0.463,1.851,0.888,2.719,1.471   c0.122-0.118,0.266-0.196,0.384-0.314c1.139-1.139,2.067-2.398,2.883-3.717C66.226,43.008,64.678,42.771,63.063,42.771z" fill="#f4b41a" style=""></path><path d="M48.074,49.493c-0.035,0.676-0.035,1.339,0,2.012c0.452,0.502,0.921,0.969,1.42,1.423c0.671,0.034,1.335,0.034,2.007,0   c0.5-0.454,0.972-0.926,1.423-1.423c0.035-0.673,0.033-1.336,0-2.008c-0.451-0.502-0.921-0.969-1.42-1.423   c-0.673-0.035-1.34-0.035-2.012,0C48.995,48.528,48.524,48.995,48.074,49.493z" fill="#f4b41a" style=""></path><path d="M64.464,53.608c-0.868,0.585-1.798,1.008-2.719,1.471c0.34,1.008,0.628,2.042,0.838,3.102   c0.166,0.004,0.314,0.048,0.48,0.048c1.615,0,3.163-0.234,4.668-0.59c-0.816-1.316-1.745-2.577-2.883-3.717   C64.73,53.805,64.586,53.726,64.464,53.608z" fill="#f4b41a" style=""></path><path d="M72.271,55.926c2.583-1.327,4.827-3.173,6.615-5.425c-1.788-2.252-4.031-4.098-6.615-5.425   c-1.091,1.929-2.357,3.784-3.998,5.425C69.914,52.142,71.179,53.996,72.271,55.926z" fill="#f4b41a" style=""></path><path d="M62.138,31.245c0.585,2.133,0.925,4.367,0.925,6.688c2.322,0,4.555,0.341,6.689,0.93c0.868-2.745,1.143-5.603,0.82-8.436   C67.74,30.104,64.879,30.375,62.138,31.245z" fill="#f4b41a" style=""></path><path d="M50.498,22.11c-2.253,1.794-4.099,4.033-5.424,6.616c1.927,1.096,3.782,2.361,5.424,4.002   c1.644-1.641,3.498-2.906,5.426-4.002C54.597,26.144,52.752,23.904,50.498,22.11z" fill="#f4b41a" style=""></path><path d="M37.931,37.934c0-2.321,0.34-4.556,0.927-6.688c-2.74-0.87-5.601-1.141-8.432-0.817c-0.323,2.833-0.05,5.69,0.817,8.436   C33.377,38.274,35.612,37.934,37.931,37.934z" fill="#f4b41a" style=""></path><path d="M22.108,50.501c1.794,2.252,4.034,4.098,6.618,5.425c1.091-1.93,2.356-3.784,3.999-5.425   c-1.643-1.641-2.908-3.496-4.001-5.425C26.143,46.403,23.902,48.249,22.108,50.501z" fill="#f4b41a" style=""></path><path d="M38.858,69.757c-0.587-2.133-0.927-4.367-0.927-6.688c-2.319,0-4.553-0.341-6.688-0.93   c-0.868,2.745-1.14,5.604-0.817,8.436C33.257,70.896,36.118,70.627,38.858,69.757z" fill="#f4b41a" style=""></path><path d="M50.498,78.891c2.255-1.793,4.1-4.032,5.426-6.616c-1.929-1.095-3.782-2.36-5.426-4c-1.642,1.64-3.497,2.905-5.424,4   C46.401,74.858,48.245,77.098,50.498,78.891z" fill="#f4b41a" style=""></path><path d="M63.063,63.068c0,2.321-0.34,4.556-0.925,6.688c2.741,0.87,5.602,1.139,8.435,0.817c0.323-2.832,0.048-5.695-0.82-8.436   C67.618,62.728,65.385,63.068,63.063,63.068z" fill="#f4b41a" style=""></path><path d="M87.425,44.026c-0.571,2.304-1.457,4.476-2.614,6.475c1.157,1.999,2.043,4.177,2.614,6.475   C88.844,52.771,88.844,48.231,87.425,44.026z" fill="#f4b41a" style=""></path><path d="M81.233,29.05c-1.981-4.041-5.244-7.301-9.286-9.282c1.249,2.063,2.147,4.268,2.745,6.541   C76.966,26.907,79.165,27.802,81.233,29.05z" fill="#f4b41a" style=""></path><path d="M56.971,13.576c-4.204-1.418-8.742-1.418-12.947,0c2.3,0.571,4.473,1.453,6.473,2.614   C52.5,15.029,54.671,14.147,56.971,13.576z" fill="#f4b41a" style=""></path><path d="M29.047,19.768c-4.042,1.981-7.301,5.241-9.284,9.282c2.066-1.248,4.268-2.143,6.541-2.741   C26.904,24.035,27.798,21.831,29.047,19.768z" fill="#f4b41a" style=""></path><path d="M13.571,56.973c0.574-2.3,1.458-4.473,2.616-6.472c-1.159-1.999-2.04-4.171-2.616-6.472   C12.158,48.231,12.158,52.771,13.571,56.973z" fill="#f4b41a" style=""></path><path d="M19.765,71.952c1.981,4.041,5.24,7.297,9.279,9.282c-1.248-2.068-2.141-4.269-2.741-6.542   C24.031,74.095,21.829,73.2,19.765,71.952z" fill="#f4b41a" style=""></path><path d="M44.024,87.426c4.205,1.418,8.746,1.418,12.947,0c-2.3-0.572-4.472-1.453-6.474-2.614   C48.498,85.973,46.324,86.854,44.024,87.426z" fill="#f4b41a" style=""></path><path d="M71.952,81.234c4.037-1.985,7.3-5.241,9.281-9.282c-2.068,1.248-4.267,2.143-6.541,2.74   C74.095,76.966,73.2,79.166,71.952,81.234z" fill="#f4b41a" style=""></path></g><desc>Created with Snap</desc><defs></defs></g><g><g transform="matrix(0.5,0,0,-0.5,0,0)"><path d="M410 330L410 1073Q410 1102 405 1115Q401 1128 401 1139Q401 1154 417 1164Q433 1174 455 1174Q506 1174 537 1147Q569 1121 569 1083L569 324Q569 250 581 198Q593 146 617 113Q641 80 676 64Q711 49 756 49Q799 49 835 65Q872 81 899 109Q926 137 941 175Q956 213 956 258Q956 327 932 373Q908 419 869 447Q831 475 782 486Q734 498 686 498Q677 498 668 509Q659 521 653 538Q647 555 644 574Q641 594 643 611Q645 628 652 639Q660 651 676 651Q700 651 734 657Q768 663 805 678Q842 694 878 720Q914 746 943 786Q972 827 990 882Q1008 938 1008 1012Q1008 1070 988 1126Q969 1183 926 1227Q883 1272 816 1299Q749 1327 655 1327Q532 1327 444 1289Q356 1251 300 1187Q245 1123 219 1038Q193 954 193 860Q193 792 204 745Q216 699 230 669Q244 640 256 626Q268 612 270 610Q287 615 294 606Q301 597 301 582Q301 568 291 540Q282 512 266 487Q250 463 229 450Q208 438 186 455Q174 466 149 495Q124 524 99 572Q75 621 56 689Q37 758 37 848Q37 992 82 1108Q127 1225 208 1308Q290 1391 403 1436Q516 1481 653 1481Q769 1481 863 1449Q958 1418 1025 1358Q1092 1298 1128 1211Q1165 1125 1165 1016Q1165 932 1145 864Q1125 796 1089 742Q1054 688 1005 646Q957 605 901 575Q946 562 985 536Q1024 511 1053 472Q1082 433 1099 380Q1116 328 1116 262Q1116 185 1088 120Q1061 55 1013 8Q965 -39 899 -66Q834 -92 758 -92Q657 -92 590 -62Q523 -31 483 24Q443 80 426 157Q410 235 410 330ZM1884 1348L1884 -10Q1884 -36 1867 -47Q1850 -57 1827 -57Q1809 -57 1791 -52Q1773 -47 1758 -39Q1744 -31 1734 -21Q1725 -10 1725 2L1725 1274Q1656 1265 1594 1235Q1533 1205 1487 1153Q1442 1101 1415 1027Q1389 953 1389 856Q1389 794 1402 744Q1415 695 1433 660Q1451 626 1469 607Q1487 588 1497 588Q1505 588 1508 595Q1512 602 1520 602Q1528 602 1531 592Q1534 582 1534 571Q1534 539 1521 509Q1508 480 1488 461Q1469 443 1445 438Q1421 433 1399 449Q1372 467 1341 504Q1311 541 1285 593Q1260 646 1243 712Q1227 778 1227 856Q1227 964 1253 1049Q1279 1135 1322 1199Q1366 1263 1424 1308Q1482 1353 1546 1381Q1610 1409 1676 1421Q1742 1434 1802 1434Q1818 1434 1833 1427Q1848 1421 1859 1409Q1870 1398 1877 1382Q1884 1366 1884 1348ZM3088 39Q3100 31 3093 15Q3086 -1 3067 -18Q3048 -34 3022 -46Q2996 -58 2970 -57Q2945 -56 2921 -42Q2897 -28 2878 1Q2860 31 2848 75Q2837 119 2837 180L2837 1128Q2837 1186 2825 1218Q2814 1250 2798 1264Q2783 1279 2766 1281Q2750 1284 2740 1284Q2729 1284 2712 1281Q2695 1278 2679 1261Q2664 1245 2653 1209Q2642 1174 2642 1108L2642 2Q2645 2 2648 -2Q2652 -5 2652 -8Q2652 -16 2640 -25Q2629 -33 2612 -41Q2595 -48 2573 -53Q2552 -57 2533 -57Q2513 -57 2497 -52Q2482 -47 2482 -18L2482 1128Q2482 1186 2471 1218Q2461 1250 2446 1264Q2431 1279 2414 1281Q2398 1284 2386 1284Q2376 1284 2359 1281Q2343 1279 2327 1264Q2311 1250 2299 1218Q2288 1186 2288 1128L2288 221Q2288 85 2243 14Q2198 -57 2112 -57Q2083 -57 2064 -47Q2046 -37 2035 -22Q2024 -7 2019 10Q2015 27 2015 41Q2015 48 2019 50Q2024 52 2032 52Q2040 52 2050 52Q2060 53 2071 57Q2081 61 2091 73Q2102 85 2110 108Q2118 131 2123 166Q2128 201 2128 252L2128 1108Q2128 1198 2150 1260Q2173 1322 2209 1361Q2245 1400 2290 1417Q2336 1434 2382 1434Q2395 1434 2417 1431Q2439 1429 2465 1420Q2492 1411 2519 1394Q2546 1378 2570 1350Q2589 1378 2612 1394Q2635 1411 2657 1420Q2680 1429 2700 1431Q2721 1434 2736 1434Q2784 1434 2830 1417Q2877 1400 2913 1361Q2950 1322 2973 1260Q2996 1198 2996 1108L2996 197Q2996 165 3003 139Q3011 114 3023 94Q3036 75 3053 61Q3070 48 3088 39ZM3533 2L3533 1073Q3533 1102 3528 1115Q3524 1128 3524 1139Q3524 1154 3540 1164Q3556 1174 3578 1174Q3629 1174 3660 1147Q3692 1121 3692 1083L3692 414Q3727 418 3771 434Q3816 450 3863 478Q3910 507 3954 549Q3999 591 4034 647Q4069 703 4090 773Q4112 844 4112 930Q4112 988 4093 1050Q4075 1112 4035 1163Q3995 1214 3931 1247Q3868 1280 3778 1280Q3655 1280 3567 1242Q3479 1204 3423 1140Q3368 1076 3342 991Q3316 907 3316 813Q3316 745 3327 698Q3339 652 3353 622Q3367 593 3379 579Q3391 565 3393 563Q3410 568 3417 559Q3424 550 3424 535Q3424 521 3414 493Q3405 465 3389 440Q3373 416 3352 403Q3331 391 3309 408Q3297 419 3272 448Q3247 477 3222 525Q3198 574 3179 642Q3160 711 3160 801Q3160 945 3205 1061Q3250 1178 3331 1261Q3413 1344 3526 1389Q3639 1434 3776 1434Q3888 1434 3979 1397Q4071 1360 4135 1293Q4200 1227 4235 1135Q4270 1043 4270 934Q4270 800 4222 686Q4174 573 4094 485Q4014 397 3909 339Q3805 281 3692 260L3692 -10Q3692 -36 3675 -47Q3658 -57 3635 -57Q3617 -57 3599 -52Q3581 -47 3566 -39Q3552 -31 3542 -21Q3533 -10 3533 2ZM5085 696Q5085 756 5079 821L5040 821Q4976 821 4920 839Q4864 857 4822 891Q4781 925 4757 972Q4733 1020 4733 1079Q4733 1119 4746 1154Q4760 1190 4784 1216Q4809 1243 4843 1258Q4877 1274 4919 1274Q4975 1274 5019 1253Q5064 1232 5098 1196Q5132 1161 5157 1113Q5182 1066 5199 1012Q5215 1021 5229 1034Q5243 1047 5257 1063Q5266 1090 5281 1090Q5292 1090 5303 1080Q5315 1071 5325 1055Q5335 1039 5341 1019Q5347 1000 5347 979Q5347 941 5315 910Q5283 880 5232 858Q5238 815 5241 774Q5245 733 5245 696Q5245 502 5206 360Q5167 218 5102 125Q5037 33 4953 -12Q4870 -57 4780 -57Q4668 -57 4583 -5Q4498 48 4440 139Q4383 230 4354 351Q4325 473 4325 610Q4325 784 4355 915Q4386 1047 4432 1142Q4479 1237 4534 1300Q4589 1363 4636 1401Q4684 1439 4717 1455Q4751 1471 4755 1473Q4760 1475 4765 1476Q4771 1477 4778 1477Q4795 1477 4808 1466Q4821 1456 4830 1440Q4839 1425 4844 1406Q4849 1387 4849 1370Q4849 1350 4843 1336Q4837 1323 4823 1323Q4816 1323 4812 1325Q4794 1315 4763 1296Q4733 1277 4697 1243Q4661 1210 4624 1159Q4587 1108 4557 1034Q4527 961 4508 861Q4489 762 4489 631Q4489 492 4515 391Q4541 290 4583 224Q4625 159 4678 127Q4731 96 4786 96Q4850 96 4904 136Q4959 176 4998 252Q5038 329 5061 440Q5084 552 5085 696ZM5034 963L5058 963Q5050 998 5039 1028Q5028 1058 5012 1079Q4996 1101 4976 1113Q4957 1126 4933 1126Q4902 1126 4892 1109Q4882 1092 4882 1075Q4882 1057 4890 1037Q4899 1017 4917 1000Q4936 984 4965 973Q4994 963 5034 963ZM6020 1348L6020 1180Q6051 1233 6086 1279Q6122 1325 6162 1359Q6202 1394 6244 1414Q6287 1434 6332 1434Q6353 1434 6377 1425Q6402 1416 6423 1395Q6444 1375 6457 1340Q6471 1306 6471 1255L6471 61Q6471 23 6478 -3Q6486 -28 6496 -45Q6507 -62 6520 -72Q6533 -82 6543 -90Q6554 -98 6561 -105Q6569 -112 6569 -123Q6569 -135 6561 -147Q6554 -159 6540 -170Q6527 -180 6508 -187Q6489 -193 6465 -193Q6442 -193 6415 -183Q6389 -173 6366 -148Q6343 -122 6327 -80Q6312 -38 6311 27L6311 1243Q6311 1263 6305 1267Q6299 1272 6293 1272Q6277 1272 6251 1247Q6225 1223 6194 1183Q6164 1143 6133 1091Q6102 1040 6077 985Q6052 930 6036 876Q6020 823 6020 780L6020 -10Q6020 -36 6003 -47Q5986 -57 5963 -57Q5945 -57 5927 -52Q5909 -47 5894 -39Q5880 -31 5870 -21Q5861 -10 5861 2L5861 1274Q5792 1265 5730 1235Q5669 1205 5623 1153Q5578 1101 5551 1027Q5525 953 5525 856Q5525 794 5538 744Q5551 695 5569 660Q5587 626 5605 607Q5623 588 5633 588Q5642 588 5650 592Q5658 596 5666 596Q5682 596 5682 571Q5682 545 5672 520Q5663 496 5647 477Q5631 459 5611 447Q5592 436 5572 436Q5546 436 5510 468Q5474 500 5441 556Q5409 612 5386 689Q5363 766 5363 856Q5363 964 5389 1049Q5415 1135 5458 1199Q5502 1263 5560 1308Q5618 1353 5682 1381Q5746 1409 5812 1421Q5878 1434 5938 1434Q5954 1434 5969 1427Q5984 1421 5995 1409Q6006 1398 6013 1382Q6020 1366 6020 1348ZM7372 119Q7307 23 7228 -30Q7149 -82 7055 -82Q6960 -82 6886 -37Q6812 9 6761 92Q6711 176 6684 293Q6658 411 6658 555Q6658 657 6679 764Q6700 871 6740 971Q6781 1072 6839 1161Q6897 1251 6971 1317Q7045 1384 7134 1423Q7223 1462 7325 1462Q7380 1462 7428 1444Q7476 1427 7510 1394Q7545 1361 7565 1314Q7585 1267 7585 1208Q7585 1152 7566 1100Q7547 1048 7514 1002Q7482 956 7439 918Q7396 880 7349 852Q7302 825 7253 810Q7204 795 7159 795Q7122 795 7095 818Q7069 842 7069 893Q7069 904 7070 917Q7072 930 7075 941Q7078 952 7082 959Q7086 967 7092 967Q7097 967 7101 963Q7106 960 7113 956Q7121 953 7134 949Q7147 946 7170 946Q7209 946 7253 967Q7298 988 7336 1023Q7374 1058 7399 1103Q7424 1149 7424 1198Q7424 1216 7417 1236Q7411 1256 7396 1273Q7382 1290 7358 1301Q7334 1313 7299 1313Q7235 1313 7175 1282Q7115 1251 7063 1196Q7011 1142 6967 1069Q6924 996 6893 912Q6862 828 6845 737Q6828 646 6828 557Q6828 446 6845 357Q6863 269 6894 207Q6925 145 6967 111Q7010 78 7059 78Q7111 78 7155 99Q7199 121 7234 157Q7269 193 7295 240Q7321 287 7338 337Q7356 387 7365 436Q7374 486 7374 528Q7374 544 7372 564Q7370 585 7370 596Q7370 611 7375 619Q7381 627 7390 631Q7399 635 7411 636Q7423 637 7436 637Q7450 637 7468 631Q7486 625 7502 614Q7519 604 7530 590Q7542 576 7542 559Q7534 476 7532 401Q7530 327 7530 250Q7530 178 7531 100Q7532 22 7532 -72Q7561 -67 7588 -65Q7616 -63 7641 -61Q7677 -59 7687 -84Q7698 -108 7690 -139Q7683 -170 7662 -196Q7641 -222 7614 -223Q7591 -223 7570 -224Q7550 -225 7528 -227Q7525 -285 7519 -344Q7513 -403 7499 -459Q7486 -514 7464 -563Q7443 -611 7411 -647Q7379 -683 7334 -704Q7289 -725 7229 -725Q7177 -725 7134 -707Q7092 -688 7062 -656Q7032 -623 7016 -579Q7000 -535 7000 -483Q7000 -405 7032 -345Q7064 -284 7116 -238Q7169 -192 7237 -160Q7305 -128 7376 -106L7376 -86Q7376 -20 7374 31Q7372 82 7372 119ZM7233 -567Q7267 -567 7291 -542Q7316 -517 7332 -474Q7348 -431 7357 -376Q7366 -320 7370 -258Q7268 -290 7213 -346Q7159 -402 7159 -479Q7159 -526 7180 -547Q7202 -567 7233 -567Z" fill="#143d59" style=""></path></g></g><g transform="matrix(0.75,0,0,0.75,1040.4121,1277.188)"><g transform="matrix(1.024,0,0,-1.024,0,0)"><path d="M461 -10Q374 -10 301 20Q228 50 174 104Q121 158 91 231Q62 304 62 391Q62 477 91 550Q121 623 174 677Q228 731 301 761Q374 791 461 791Q547 791 620 761Q693 731 747 677Q801 623 830 550Q860 477 860 391Q860 304 830 231Q801 158 747 104Q693 50 620 20Q547 -10 461 -10ZM461 64Q530 64 589 88Q648 113 691 157Q735 202 759 261Q783 321 783 391Q783 460 759 519Q735 579 691 623Q648 668 589 692Q530 717 461 717Q391 717 332 692Q273 668 229 623Q186 579 162 519Q138 460 138 391Q138 321 162 261Q186 202 229 157Q273 113 332 88Q391 64 461 64ZM1261 -10Q1197 -10 1142 8Q1088 27 1048 61Q1008 95 987 140Q979 156 986 169Q994 183 1012 188Q1026 192 1039 185Q1053 178 1060 164Q1075 135 1104 112Q1133 89 1173 76Q1213 64 1261 64Q1314 64 1355 81Q1396 99 1419 132Q1443 166 1443 214Q1443 275 1398 319Q1353 363 1257 375Q1140 389 1074 447Q1008 506 1008 591Q1008 652 1040 697Q1073 742 1130 766Q1187 791 1261 791Q1316 791 1361 773Q1406 756 1439 727Q1473 699 1494 665Q1504 649 1500 634Q1497 619 1483 611Q1468 604 1452 609Q1437 614 1429 628Q1414 651 1391 671Q1369 692 1337 704Q1305 716 1260 717Q1181 717 1133 683Q1085 650 1085 586Q1085 552 1103 523Q1121 495 1162 474Q1204 454 1274 444Q1399 426 1459 367Q1520 309 1520 215Q1520 161 1500 119Q1481 77 1445 48Q1410 20 1362 5Q1315 -10 1261 -10ZM2034 -10Q1953 -10 1882 21Q1812 52 1758 107Q1705 163 1675 235Q1645 308 1645 391Q1645 473 1674 545Q1704 618 1757 673Q1811 728 1881 759Q1952 791 2034 791Q2106 791 2165 770Q2224 749 2279 703Q2288 696 2289 686Q2291 677 2287 668Q2283 660 2275 656Q2273 648 2265 644Q2257 640 2246 641Q2236 642 2226 650Q2187 684 2141 700Q2095 717 2034 717Q1969 717 1912 691Q1856 665 1813 620Q1770 575 1745 516Q1721 457 1721 391Q1721 323 1745 264Q1770 205 1813 160Q1856 115 1912 89Q1969 64 2034 64Q2089 64 2138 82Q2187 100 2231 134Q2243 144 2256 142Q2270 140 2280 130Q2290 120 2290 104Q2290 96 2287 89Q2285 83 2279 76Q2228 29 2165 9Q2102 -10 2034 -10ZM2411 0Q2388 0 2378 19Q2368 38 2376 56L2670 754Q2681 781 2708 781Q2734 781 2745 754L3040 55Q3049 36 3037 18Q3026 0 3005 0Q2993 0 2983 6Q2974 12 2968 24L2693 691L2724 691L2447 24Q2442 12 2432 6Q2423 0 2411 0ZM2943 186L2477 186L2507 253L2913 253L2943 186ZM3196 0Q3179 0 3168 11Q3157 22 3157 39L3157 742Q3157 759 3168 770Q3179 781 3196 781L3383 781Q3456 781 3513 750Q3570 720 3602 665Q3635 611 3635 540Q3635 472 3602 419Q3570 366 3513 336Q3456 306 3383 306L3235 306L3235 39Q3235 22 3224 11Q3213 0 3196 0ZM3614 0Q3601 0 3593 5Q3586 10 3580 20L3388 326L3466 346L3645 60Q3660 36 3650 18Q3641 0 3614 0ZM3235 706L3235 381L3383 381Q3434 381 3473 401Q3513 422 3536 458Q3559 494 3559 540Q3559 589 3536 626Q3513 664 3473 685Q3434 706 3383 706L3235 706Z" fill="#143d59" style=""></path></g></g></g></svg>